<svg xmlns="http://www.w3.org/2000/svg" width="42" height="42" viewBox="0 0 42 42"><defs><style>.a{fill:#34a852;opacity:0.5;}</style></defs><path class="a" d="M50,29A21,21,0,1,1,29,8,21,21,0,0,1,50,29ZM37.84,26.553,31.71,32.946V17.484a2.027,2.027,0,0,0-2.032-2.032H28.323a2.027,2.027,0,0,0-2.032,2.032V32.946L20.16,26.553a2.035,2.035,0,0,0-2.9-.034l-.923.931a2.024,2.024,0,0,0,0,2.871L27.56,41.558a2.024,2.024,0,0,0,2.871,0L41.668,30.321a2.024,2.024,0,0,0,0-2.871l-.923-.931a2.035,2.035,0,0,0-2.9.034Z" transform="translate(-8 -8)"/></svg>