<svg xmlns="http://www.w3.org/2000/svg" width="464.404" height="97.377" viewBox="0 0 464.404 97.377"><defs><style>.a{fill:#fff;}</style></defs><path class="a" d="M25.493,16.952V74.4h-10.1V16.952H0V7.457H40.841v9.495Z"/><path class="a" d="M82.809,55.582H52.547a12.823,12.823,0,0,0,3.382,8.281A10.309,10.309,0,0,0,63.6,66.9a9.979,9.979,0,0,0,6.026-1.734,24.652,24.652,0,0,0,5.332-6.417l8.238,4.6a32.8,32.8,0,0,1-4.032,5.571,21.465,21.465,0,0,1-4.552,3.815,18.28,18.28,0,0,1-5.246,2.19,25.571,25.571,0,0,1-6.113.693q-9.453,0-15.174-6.07-5.723-6.113-5.723-16.215,0-10.015,5.549-16.215Q53.5,31,62.735,31q9.321,0,14.741,5.94,5.376,5.9,5.376,16.345ZM72.794,47.6q-2.038-7.8-9.842-7.8a10.115,10.115,0,0,0-3.338.542,9.563,9.563,0,0,0-2.84,1.561,9.9,9.9,0,0,0-2.189,2.449A11.385,11.385,0,0,0,53.2,47.6Z"/><path class="a" d="M126.338,33.991V46.954a23.788,23.788,0,0,0-5.983-5.593,11.654,11.654,0,0,0-6.113-1.561,12.05,12.05,0,0,0-9.148,3.859,13.533,13.533,0,0,0-3.642,9.668,13.838,13.838,0,0,0,3.512,9.755,11.839,11.839,0,0,0,9.062,3.815,12.39,12.39,0,0,0,6.2-1.518,24.557,24.557,0,0,0,6.113-5.723V72.534a25.626,25.626,0,0,1-11.879,3.078,22.729,22.729,0,0,1-16.389-6.33,21.124,21.124,0,0,1-6.59-15.825A21.409,21.409,0,0,1,98.157,37.5,22.588,22.588,0,0,1,114.545,31a24.494,24.494,0,0,1,11.793,2.992Z"/><path class="a" d="M138.086,1.171h9.755V35.682A16.8,16.8,0,0,1,159.331,31q7.153,0,11.446,4.639,3.642,4.032,3.642,12.876V74.4h-9.755V49.425q0-5.073-1.8-7.349T157.076,39.8q-5.116,0-7.2,3.165-2.038,3.209-2.038,11.012V74.4h-9.755Z"/><path class="a" d="M186.3,74.4l14.09-71.97,22.979,52.026,23.8-52.026,12.66,71.97H249.467l-6.46-40.407L223.193,77.476l-19.25-43.529-7.2,40.451Z"/><path class="a" d="M265.707,52.98a20.983,20.983,0,0,1,6.547-15.564,23.1,23.1,0,0,1,32,.043,21.5,21.5,0,0,1,6.5,15.868,21.387,21.387,0,0,1-6.547,15.912,22.377,22.377,0,0,1-16.171,6.373,21.457,21.457,0,0,1-15.912-6.5,21.868,21.868,0,0,1-6.417-16.128Zm9.972.173q0,6.33,3.382,10.015a13.141,13.141,0,0,0,18.3.043q3.424-3.685,3.425-9.842t-3.425-9.842a12.981,12.981,0,0,0-18.209,0,13.57,13.57,0,0,0-3.468,9.625Z"/><path class="a" d="M347.762,1.171h9.8V74.4h-9.8V69.976a18.2,18.2,0,0,1-13.05,5.636,18.579,18.579,0,0,1-14.394-6.33q-5.681-6.46-5.68-16.128a22.752,22.752,0,0,1,5.68-15.781A18.121,18.121,0,0,1,334.5,31q7.414,0,13.267,6.07ZM324.61,53.154a14.71,14.71,0,0,0,3.251,9.885,10.649,10.649,0,0,0,8.411,3.858,11.194,11.194,0,0,0,8.758-3.729,14.438,14.438,0,0,0,3.338-9.8,14.44,14.44,0,0,0-3.338-9.8,11.038,11.038,0,0,0-8.67-3.772,10.785,10.785,0,0,0-8.411,3.815,14.063,14.063,0,0,0-3.339,9.538Z"/><path class="a" d="M366.18,14.611a6.366,6.366,0,0,1,6.33-6.287,6.145,6.145,0,0,1,4.509,1.864,6,6,0,0,1,1.864,4.466,6.142,6.142,0,0,1-1.864,4.509,6,6,0,0,1-4.465,1.864,6.14,6.14,0,0,1-4.509-1.864,6.19,6.19,0,0,1-1.865-4.552ZM377.409,32.17V74.4h-9.755V32.17Z"/><path class="a" d="M399.866,41.274V74.4h-9.8V41.274H386.6v-9.1h3.468v-16.3q0-7.977,2.775-11.273Q396.657,0,403.941,0a19.092,19.092,0,0,1,6.547,1.518v9.972l-1-.52a12.255,12.255,0,0,0-5.2-1.6,3.529,3.529,0,0,0-3.512,1.864q-.911,1.822-.911,7.024V32.17h10.622v9.1Z"/><path class="a" d="M436.094,66.551,417.1,32.17H428.42l12.92,24.279L453.393,32.17H464.4L430.761,97.377H419.619Z"/></svg>